<svg xmlns="http://www.w3.org/2000/svg" baseProfile="full" version="1.1" width="310px" height="310px" style="fill: none; width: 310px; height: 310px; stroke-width: 30;"><path d="" style="stroke-width: 10; stroke-linecap: round; stroke-linejoin: round; stroke: rgb(255, 255, 255); fill: none;"/><path d="M155,20 A135,135 0 0,1 290,155 A135,135 0 0,1 155,290 A135,135 0 0,1 20,155 A135,135 0 0,1 155,20 " style="stroke-width: 30; stroke-linecap: round; stroke-linejoin: round; stroke: rgb(0, 0, 0); fill: none;"/><path d="M65,65 L65,65 L245,65 M35,110 L35,110 L275,110 M20,155 L20,155 L290,155 M35,200 L35,200 L275,200 M65,245 L65,245 L245,245 " style="stroke-width: 30; stroke-linecap: round; stroke-linejoin: round; stroke: rgb(0, 0, 0); fill: none;"/></svg>